<svg width="40" height="40" viewBox="0 0 40 40" fill="none" xmlns="http://www.w3.org/2000/svg">
<path d="M17.6 17.8182C18.2627 17.8182 18.8 18.3066 18.8 18.9091V25.4545C18.8 26.057 18.2627 26.5455 17.6 26.5455C16.9373 26.5455 16.4 26.057 16.4 25.4545V18.9091C16.4 18.3066 16.9373 17.8182 17.6 17.8182Z" fill="#2D3648"/>
<path d="M23.6 25.4545V18.9091C23.6 18.3066 23.0627 17.8182 22.4 17.8182C21.7373 17.8182 21.2 18.3066 21.2 18.9091V25.4545C21.2 26.057 21.7373 26.5455 22.4 26.5455C23.0627 26.5455 23.6 26.057 23.6 25.4545Z" fill="#2D3648"/>
<path fill-rule="evenodd" clip-rule="evenodd" d="M14 12.3636V11.2727C14 10.4047 14.3793 9.57231 15.0544 8.95856C15.7295 8.3448 16.6452 8 17.6 8H22.4C23.3548 8 24.2705 8.3448 24.9456 8.95856C25.6207 9.57231 26 10.4047 26 11.2727V12.3636H30.8C31.4627 12.3636 32 12.8521 32 13.4545C32 14.057 31.4627 14.5455 30.8 14.5455H29.6V28.7273C29.6 29.5953 29.2207 30.4277 28.5456 31.0414C27.8705 31.6552 26.9548 32 26 32H14C13.0452 32 12.1295 31.6552 11.4544 31.0414C10.7793 30.4277 10.4 29.5953 10.4 28.7273V14.5455H9.2C8.53726 14.5455 8 14.057 8 13.4545C8 12.8521 8.53726 12.3636 9.2 12.3636H14ZM16.7515 10.5013C16.9765 10.2968 17.2817 10.1818 17.6 10.1818H22.4C22.7183 10.1818 23.0235 10.2968 23.2485 10.5013C23.4736 10.7059 23.6 10.9834 23.6 11.2727V12.3636H16.4V11.2727C16.4 10.9834 16.5264 10.7059 16.7515 10.5013ZM12.8 14.5455V28.7273C12.8 29.0166 12.9264 29.2941 13.1515 29.4987C13.3765 29.7032 13.6817 29.8182 14 29.8182H26C26.3183 29.8182 26.6235 29.7032 26.8485 29.4987C27.0736 29.2941 27.2 29.0166 27.2 28.7273V14.5455H12.8Z" fill="#2D3648"/>
</svg>
