<svg width="40" height="40" viewBox="0 0 40 40" fill="none" xmlns="http://www.w3.org/2000/svg">
<path fill-rule="evenodd" clip-rule="evenodd" d="M27.7907 8C27.2379 8 26.6906 8.10888 26.1799 8.32041C25.6692 8.53195 25.2052 8.842 24.8143 9.23287L9.97128 24.0759C9.83598 24.2112 9.73834 24.3794 9.68799 24.564L8.03877 30.6112C7.93495 30.9919 8.04306 31.3989 8.32206 31.6779C8.60105 31.9569 9.00815 32.065 9.3888 31.9612L15.436 30.312C15.6206 30.2617 15.7888 30.164 15.9241 30.0287L30.7671 15.1857C31.158 14.7948 31.4681 14.3308 31.6796 13.8201C31.8911 13.3094 32 12.7621 32 12.2093C32 11.6565 31.8911 11.1092 31.6796 10.5985C31.4681 10.0878 31.158 9.62374 30.7671 9.23287C30.3763 8.842 29.9122 8.53195 29.4015 8.32041C28.8908 8.10888 28.3435 8 27.7907 8ZM27.0214 10.352C27.2653 10.251 27.5267 10.199 27.7907 10.199C28.0547 10.199 28.3161 10.251 28.56 10.352C28.8039 10.453 29.0255 10.6011 29.2122 10.7878C29.3989 10.9745 29.547 11.1961 29.648 11.44C29.749 11.6839 29.801 11.9453 29.801 12.2093C29.801 12.4733 29.749 12.7347 29.648 12.9786C29.547 13.2225 29.3989 13.4441 29.2122 13.6308L14.5757 28.2674L10.6665 29.3335L11.7326 25.4243L26.3692 10.7878C26.5559 10.6011 26.7775 10.453 27.0214 10.352Z" fill="#130700"/>
</svg>
