<svg width="115" height="24" viewBox="0 0 115 24" fill="none" xmlns="http://www.w3.org/2000/svg">
<path d="M7.82221 18.9398C8.6353 18.9398 9.41142 18.6602 10.1506 18.1012C10.8898 17.5229 11.5735 16.7518 12.2018 15.788L12.3404 15.9036C12.211 16.0964 11.9985 16.4145 11.7028 16.8578C11.4072 17.2819 11.0283 17.7157 10.5664 18.159C10.1229 18.6024 9.58697 18.988 8.95868 19.3157C8.33039 19.6434 7.61894 19.8072 6.82434 19.8072C5.86343 19.8072 4.95795 19.6145 4.10791 19.2289C3.27635 18.8241 2.54642 18.294 1.91813 17.6386C1.28984 16.9639 0.800146 16.1735 0.449043 15.2675C0.116418 14.3614 -0.0314145 13.4072 0.00554374 12.4048C0.042502 11.4988 0.227293 10.641 0.559918 9.83133C0.911021 9.02169 1.373 8.31807 1.94585 7.72048C2.53718 7.10362 3.21167 6.61205 3.96932 6.24578C4.74544 5.86024 5.56776 5.63856 6.43628 5.58072C7.6559 5.52289 8.77389 5.76386 9.79024 6.30362C10.8251 6.8241 11.6659 7.55663 12.3126 8.50121C12.5898 8.88675 12.7377 9.30121 12.7561 9.74458C12.7746 10.188 12.6915 10.6024 12.5067 10.988C12.3219 11.3542 12.0539 11.6627 11.7028 11.9133C11.3517 12.1446 10.9452 12.2602 10.4832 12.2602C9.89188 12.2602 9.37446 12.0578 8.93096 11.653C8.50594 11.2289 8.26571 10.7084 8.21028 10.0916C8.0994 8.85783 7.91461 7.83615 7.6559 7.02651C7.41567 6.19759 7.13849 5.78313 6.82434 5.78313C6.62107 5.78313 6.42704 5.96627 6.24225 6.33253C6.05746 6.6988 5.89115 7.2 5.74331 7.83614C5.61396 8.47229 5.51232 9.21446 5.43841 10.0627C5.36449 10.8916 5.32753 11.7687 5.32753 12.694C5.32753 13.3108 5.33677 13.9855 5.35525 14.7181C5.39221 15.4313 5.49384 16.106 5.66016 16.7422C5.82647 17.359 6.07594 17.8795 6.40856 18.3036C6.74119 18.7277 7.2124 18.9398 7.82221 18.9398Z" fill="#986E3F"/>
<path d="M20.8004 5.58072C21.7983 5.58072 22.7315 5.77349 23.6 6.15904C24.4685 6.5253 25.2262 7.03615 25.8729 7.69157C26.5197 8.32771 27.0279 9.07952 27.3975 9.94699C27.7855 10.8145 27.9795 11.7398 27.9795 12.7229C27.9795 13.706 27.7855 14.6313 27.3975 15.4988C27.0279 16.3663 26.5197 17.1181 25.8729 17.7542C25.2262 18.3904 24.4685 18.9012 23.6 19.2867C22.7315 19.653 21.7983 19.8361 20.8004 19.8361C19.8025 19.8361 18.8693 19.653 18.0008 19.2867C17.1323 18.9012 16.3747 18.3904 15.7279 17.7542C15.0811 17.1181 14.5637 16.3663 14.1756 15.4988C13.8061 14.6313 13.6213 13.706 13.6213 12.7229C13.6213 11.7398 13.8061 10.8145 14.1756 9.94699C14.5637 9.07952 15.0811 8.32771 15.7279 7.69157C16.3747 7.03615 17.1323 6.5253 18.0008 6.15904C18.8693 5.77349 19.8025 5.58072 20.8004 5.58072ZM20.8004 19.7205C21.0776 19.7205 21.3271 19.5374 21.5488 19.1711C21.789 18.8048 22.0016 18.3036 22.1863 17.6675C22.3711 17.0313 22.5097 16.2892 22.6021 15.441C22.713 14.5928 22.7684 13.6867 22.7684 12.7229C22.7684 11.759 22.713 10.853 22.6021 10.0048C22.5097 9.15663 22.3711 8.41446 22.1863 7.77831C22.0016 7.14217 21.789 6.64096 21.5488 6.2747C21.3271 5.90843 21.0776 5.7253 20.8004 5.7253C20.5232 5.7253 20.2645 5.90843 20.0243 6.2747C19.8025 6.64096 19.5993 7.14217 19.4145 7.77831C19.2297 8.41446 19.0818 9.15663 18.971 10.0048C18.8786 10.853 18.8324 11.759 18.8324 12.7229C18.8324 13.6867 18.8786 14.5928 18.971 15.441C19.0818 16.2892 19.2297 17.0313 19.4145 17.6675C19.5993 18.3036 19.8025 18.8048 20.0243 19.1711C20.2645 19.5374 20.5232 19.7205 20.8004 19.7205Z" fill="#986E3F"/>
<path d="M34.8793 5.98554H38.9817V6.15904H34.8793V19.5181H35.9326V19.6916H28.6149V19.5181H29.6682V5.98554C29.6682 5.25301 29.7699 4.53012 29.9731 3.81687C30.1949 3.08434 30.509 2.43855 30.9156 1.87952C31.3406 1.32048 31.858 0.86747 32.4678 0.520482C33.0961 0.173494 33.8168 0 34.6299 0H35.5169C35.868 0 36.2468 0.0674701 36.6533 0.20241C37.0784 0.33735 37.4664 0.520482 37.8175 0.751808C38.1871 0.983133 38.5012 1.26265 38.76 1.59036C39.0187 1.8988 39.1665 2.24578 39.2035 2.63133C39.2404 2.92048 39.2127 3.2 39.1203 3.46988C39.0464 3.72048 38.9263 3.95181 38.76 4.16386C38.5936 4.35663 38.3996 4.52048 38.1779 4.65542C37.9561 4.77109 37.7066 4.82892 37.4295 4.82892C37.0784 4.82892 36.7827 4.78072 36.5425 4.68434C36.3207 4.56868 36.1174 4.41446 35.9326 4.22169C35.7663 4.00964 35.6 3.75904 35.4337 3.46988C35.2859 3.16145 35.1103 2.81446 34.9071 2.42892C34.5929 1.77349 34.2418 1.27229 33.8537 0.925301C33.4842 0.559036 33.1608 0.433735 32.8836 0.549397C32.5879 0.684337 32.4309 1.06024 32.4124 1.67711C32.4124 2.29398 32.5694 2.97831 32.8836 3.73012C33.1608 4.40482 33.4842 4.96386 33.8537 5.40723C34.2418 5.83133 34.5837 6.0241 34.8793 5.98554Z" fill="#986E3F"/>
<path d="M45.4363 5.98554H49.5386V6.15904H45.4363V19.5181H46.4896V19.6916H39.1718V19.5181H40.2251V5.98554C40.2251 5.25301 40.3268 4.53012 40.5301 3.81687C40.7518 3.08434 41.0659 2.43855 41.4725 1.87952C41.8975 1.32048 42.4149 0.86747 43.0247 0.520482C43.653 0.173494 44.3737 0 45.1868 0H46.0738C46.4249 0 46.8037 0.0674701 47.2103 0.20241C47.6353 0.33735 48.0233 0.520482 48.3744 0.751808C48.744 0.983133 49.0582 1.26265 49.3169 1.59036C49.5756 1.8988 49.7234 2.24578 49.7604 2.63133C49.7973 2.92048 49.7696 3.2 49.6772 3.46988C49.6033 3.72048 49.4832 3.95181 49.3169 4.16386C49.1506 4.35663 48.9565 4.52048 48.7348 4.65542C48.513 4.77109 48.2636 4.82892 47.9864 4.82892C47.6353 4.82892 47.3396 4.78072 47.0994 4.68434C46.8776 4.56868 46.6744 4.41446 46.4896 4.22169C46.3233 4.00964 46.1569 3.75904 45.9906 3.46988C45.8428 3.16145 45.6672 2.81446 45.464 2.42892C45.1498 1.77349 44.7987 1.27229 44.4107 0.925301C44.0411 0.559036 43.7177 0.433735 43.4405 0.549397C43.1449 0.684337 42.9878 1.06024 42.9693 1.67711C42.9693 2.29398 43.1264 2.97831 43.4405 3.73012C43.7177 4.40482 44.0411 4.96386 44.4107 5.40723C44.7987 5.83133 45.1406 6.0241 45.4363 5.98554Z" fill="#986E3F"/>
<path d="M57.0519 18.7084C57.5508 18.7084 58.1052 18.4578 58.715 17.9566C59.3433 17.4361 59.9716 16.694 60.5999 15.7301L60.7385 15.8458C60.6091 16.0386 60.3966 16.3566 60.101 16.8C59.8053 17.2241 59.4265 17.6578 58.9645 18.1012C58.521 18.5253 57.9851 18.9012 57.3568 19.2289C56.747 19.5566 56.0448 19.7205 55.2502 19.7205C54.086 19.7205 53.0697 19.4892 52.2011 19.0265C51.3326 18.5446 50.6119 17.947 50.0391 17.2337C49.4847 16.5012 49.0782 15.7012 48.8195 14.8337C48.5607 13.9663 48.4406 13.147 48.4591 12.3759C48.4961 11.4699 48.6809 10.6217 49.0135 9.83133C49.3646 9.02169 49.8266 8.31807 50.3994 7.72048C50.9908 7.10362 51.6652 6.61205 52.4229 6.24578C53.1805 5.86024 53.9936 5.63856 54.8621 5.58072C56.0633 5.52289 57.172 5.76386 58.1884 6.30362C59.2047 6.8241 60.0363 7.54699 60.6831 8.47229C60.9602 8.85783 61.1081 9.27229 61.1266 9.71566C61.145 10.159 61.0619 10.5735 60.8771 10.959C60.6923 11.3253 60.4243 11.6337 60.0732 11.8843C59.7221 12.1157 59.3156 12.2313 58.8536 12.2313C58.6134 12.2313 58.3362 12.2313 58.0221 12.2313C57.7079 12.212 57.3845 12.2217 57.0519 12.2602C56.7378 12.2988 56.4236 12.3759 56.1095 12.4916C55.8138 12.6072 55.5643 12.7904 55.3611 13.041C55.2687 13.1566 55.1763 13.2723 55.0839 13.388C55.01 13.5036 54.936 13.6289 54.8621 13.7639C54.6034 14.2072 54.4648 14.6988 54.4464 15.2386C54.4464 15.759 54.5665 16.2506 54.8067 16.7133C54.9176 16.9446 55.0562 17.1855 55.2225 17.4361C55.3888 17.6675 55.5643 17.8795 55.7491 18.0723C55.9524 18.2458 56.1649 18.4 56.3867 18.5349C56.6084 18.6506 56.8302 18.7084 57.0519 18.7084ZM53.7257 12.6361C53.7257 13.6193 53.8643 14.506 54.1414 15.2964C54.2338 14.6988 54.3817 14.2265 54.5849 13.8795C54.8067 13.5133 55.0377 13.1663 55.2779 12.8386C55.4257 12.6265 55.5643 12.4241 55.6937 12.2313C55.8415 12.0386 55.9801 11.8169 56.1095 11.5663C56.2388 11.2964 56.3405 10.988 56.4144 10.641C56.4883 10.2747 56.5252 9.84097 56.5252 9.33976C56.5252 8.81928 56.4791 8.34699 56.3867 7.92289C56.3127 7.47952 56.2111 7.10362 56.0818 6.79518C55.9709 6.46747 55.8323 6.21687 55.666 6.04337C55.5181 5.86988 55.3703 5.78313 55.2225 5.78313C55.0192 5.78313 54.8252 5.96627 54.6404 6.33253C54.4741 6.6988 54.317 7.2 54.1692 7.83614C54.0398 8.45301 53.9289 9.17591 53.8365 10.0048C53.7626 10.8337 53.7257 11.7108 53.7257 12.6361Z" fill="#986E3F"/>
<path d="M70.5864 18.7084C71.0854 18.7084 71.6397 18.4578 72.2495 17.9566C72.8778 17.4361 73.5061 16.694 74.1344 15.7301L74.273 15.8458C74.1437 16.0386 73.9312 16.3566 73.6355 16.8C73.3398 17.2241 72.961 17.6578 72.499 18.1012C72.0555 18.5253 71.5196 18.9012 70.8913 19.2289C70.2815 19.5566 69.5793 19.7205 68.7847 19.7205C67.6205 19.7205 66.6042 19.4892 65.7357 19.0265C64.8671 18.5446 64.1464 17.947 63.5736 17.2337C63.0192 16.5012 62.6127 15.7012 62.354 14.8337C62.0953 13.9663 61.9752 13.147 61.9936 12.3759C62.0306 11.4699 62.2154 10.6217 62.548 9.83133C62.8991 9.02169 63.3611 8.31807 63.9339 7.72048C64.5253 7.10362 65.1998 6.61205 65.9574 6.24578C66.715 5.86024 67.5281 5.63856 68.3966 5.58072C69.5978 5.52289 70.7066 5.76386 71.7229 6.30362C72.7393 6.8241 73.5708 7.54699 74.2176 8.47229C74.4948 8.85783 74.6426 9.27229 74.6611 9.71566C74.6796 10.159 74.5964 10.5735 74.4116 10.959C74.2268 11.3253 73.9589 11.6337 73.6078 11.8843C73.2567 12.1157 72.8501 12.2313 72.3881 12.2313C72.1479 12.2313 71.8707 12.2313 71.5566 12.2313C71.2424 12.212 70.9191 12.2217 70.5864 12.2602C70.2723 12.2988 69.9581 12.3759 69.644 12.4916C69.3483 12.6072 69.0989 12.7904 68.8956 13.041C68.8032 13.1566 68.7108 13.2723 68.6184 13.388C68.5445 13.5036 68.4706 13.6289 68.3966 13.7639C68.1379 14.2072 67.9993 14.6988 67.9809 15.2386C67.9809 15.759 68.101 16.2506 68.3412 16.7133C68.4521 16.9446 68.5907 17.1855 68.757 17.4361C68.9233 17.6675 69.0989 17.8795 69.2836 18.0723C69.4869 18.2458 69.6994 18.4 69.9212 18.5349C70.1429 18.6506 70.3647 18.7084 70.5864 18.7084ZM67.2602 12.6361C67.2602 13.6193 67.3988 14.506 67.676 15.2964C67.7684 14.6988 67.9162 14.2265 68.1195 13.8795C68.3412 13.5133 68.5722 13.1663 68.8124 12.8386C68.9603 12.6265 69.0988 12.4241 69.2282 12.2313C69.376 12.0386 69.5146 11.8169 69.644 11.5663C69.7733 11.2964 69.875 10.988 69.9489 10.641C70.0228 10.2747 70.0598 9.84097 70.0598 9.33976C70.0598 8.81928 70.0136 8.34699 69.9212 7.92289C69.8473 7.47952 69.7456 7.10362 69.6163 6.79518C69.5054 6.46747 69.3668 6.21687 69.2005 6.04337C69.0527 5.86988 68.9048 5.78313 68.757 5.78313C68.5537 5.78313 68.3597 5.96627 68.1749 6.33253C68.0086 6.6988 67.8515 7.2 67.7037 7.83614C67.5743 8.45301 67.4634 9.17591 67.3711 10.0048C67.2971 10.8337 67.2602 11.7108 67.2602 12.6361Z" fill="#986E3F"/>
<path d="M78.8087 5.26265C78.1989 5.26265 77.6815 5.0506 77.2564 4.62651C76.8499 4.18313 76.6466 3.64337 76.6466 3.00723C76.6466 2.39036 76.8499 1.86988 77.2564 1.44578C77.6815 1.00241 78.1989 0.780723 78.8087 0.780723C79.4 0.780723 79.899 1.00241 80.3055 1.44578C80.7305 1.86988 80.943 2.39036 80.943 3.00723C80.943 3.64337 80.7305 4.18313 80.3055 4.62651C79.899 5.0506 79.4 5.26265 78.8087 5.26265ZM82.7448 19.5181V19.6916H75.427V19.5181H76.4803V6.47711L74.8449 6.70844V6.53494L76.4803 6.30362L81.6914 5.60964V19.5181H82.7448Z" fill="#986E3F"/>
<path d="M99.1462 19.5181H100.2V19.6916H92.8818V19.5181H93.9351V16.8867H93.9628V12.9253C93.9628 12.0771 93.9628 11.2482 93.9628 10.4386C93.9628 9.60964 93.9258 8.86747 93.8519 8.21205C93.778 7.53735 93.6394 6.99759 93.4361 6.59277C93.2514 6.18795 92.9649 5.98554 92.5769 5.98554C92.0595 5.98554 91.6067 6.08193 91.2187 6.2747C90.8491 6.44819 90.4887 6.68916 90.1376 6.99759V19.5181H91.1909V19.6916H83.8732V19.5181H84.9265V6.53494L83.2911 6.76627V6.59277L84.9265 6.36145L90.1376 5.66747V6.76627C90.4518 6.49639 90.8029 6.2747 91.1909 6.10121C91.5975 5.90843 92.0595 5.81205 92.5769 5.81205C94.7389 5.81205 96.3743 6.17831 97.4831 6.91084C98.5918 7.6241 99.1462 8.86747 99.1462 10.641V19.5181Z" fill="#986E3F"/>
<path d="M111.979 16.8289C112.755 16.8289 113.346 16.9639 113.753 17.2337C114.178 17.5036 114.483 17.841 114.667 18.2458C114.852 18.6313 114.954 19.0554 114.972 19.5181C114.991 19.9614 115 20.3759 115 20.7614C115 21.5133 114.917 22.1012 114.751 22.5253C114.603 22.9687 114.39 23.2964 114.113 23.5084C113.836 23.7205 113.512 23.8554 113.143 23.9133C112.773 23.9711 112.385 24 111.979 24C111.591 24 111.045 23.9422 110.343 23.8265C110.048 23.788 109.66 23.7398 109.179 23.6819C108.717 23.6241 108.218 23.5663 107.682 23.5084C107.165 23.4699 106.638 23.4313 106.102 23.3928C105.585 23.3735 105.132 23.3639 104.744 23.3639C104.264 23.3639 103.811 23.306 103.386 23.1904C102.961 23.0747 102.582 22.8723 102.249 22.5831C101.935 22.294 101.686 21.9084 101.501 21.4265C101.316 20.9639 101.224 20.3855 101.224 19.6916C101.224 19.0554 101.27 18.4964 101.362 18.0145C101.455 17.5133 101.575 17.0795 101.723 16.7133C101.889 16.3277 102.065 16 102.249 15.7301C102.434 15.441 102.61 15.1904 102.776 14.9783C102.24 14.4964 101.815 13.947 101.501 13.3301C101.205 12.694 101.057 12.0193 101.057 11.306C101.057 10.5542 101.233 9.84097 101.584 9.16627C101.935 8.49157 102.406 7.91325 102.998 7.43133C103.608 6.93012 104.319 6.53494 105.132 6.24578C105.945 5.95663 106.814 5.81205 107.738 5.81205C108.588 5.81205 109.392 5.93735 110.149 6.18795C110.907 6.41928 111.581 6.74699 112.173 7.17109C112.376 7.09398 112.607 6.99759 112.866 6.88193C113.143 6.76627 113.411 6.60241 113.67 6.39036C113.503 6.44819 113.318 6.47711 113.115 6.47711C112.598 6.47711 112.163 6.29398 111.812 5.92771C111.461 5.56145 111.286 5.10844 111.286 4.56868C111.286 4.04819 111.461 3.60482 111.812 3.23856C112.163 2.85301 112.598 2.66024 113.115 2.66024C113.596 2.66024 114.021 2.84337 114.39 3.20964C114.76 3.55663 114.945 3.98072 114.945 4.48193C114.945 4.69398 114.908 4.91566 114.834 5.14699C114.778 5.37831 114.704 5.55181 114.612 5.66747C114.353 6.11085 113.993 6.46747 113.531 6.73735C113.069 6.98795 112.672 7.18072 112.339 7.31566C112.986 7.81687 113.494 8.41446 113.864 9.10843C114.233 9.78313 114.418 10.5157 114.418 11.306C114.418 12.0578 114.242 12.7711 113.891 13.4458C113.54 14.1205 113.06 14.7084 112.45 15.2096C111.859 15.7108 111.156 16.106 110.343 16.3952C109.53 16.6843 108.662 16.8289 107.738 16.8289C106.777 16.8289 105.881 16.6747 105.049 16.3663C104.217 16.0578 103.497 15.6337 102.887 15.094C102.795 15.1904 102.711 15.2964 102.637 15.412C102.582 15.5277 102.517 15.6434 102.443 15.759C102.351 15.9325 102.314 16.1446 102.333 16.3952C102.37 16.6458 102.48 16.8867 102.665 17.1181C102.868 17.3494 103.155 17.5518 103.524 17.7253C103.894 17.8988 104.365 17.9855 104.938 17.9855C105.585 17.9855 106.232 17.9277 106.878 17.812C107.544 17.6771 108.181 17.5422 108.791 17.4072C109.419 17.253 110.001 17.1181 110.537 17.0024C111.092 16.8867 111.572 16.8289 111.979 16.8289ZM107.738 5.95663C107.534 5.95663 107.34 6.10121 107.156 6.39036C106.989 6.66024 106.832 7.03615 106.684 7.51807C106.555 8 106.453 8.56868 106.379 9.2241C106.306 9.87952 106.269 10.5735 106.269 11.306C106.269 11.4988 106.269 11.6916 106.269 11.8843C106.269 12.0578 106.278 12.241 106.296 12.4337C106.629 12.3373 106.897 12.2892 107.1 12.2892C107.599 12.2892 108.015 12.347 108.348 12.4627C108.68 12.559 108.948 12.694 109.151 12.8675C109.188 12.6169 109.207 12.3663 109.207 12.1157C109.207 11.8458 109.207 11.5759 109.207 11.306C109.207 10.5735 109.17 9.87952 109.096 9.2241C109.022 8.56868 108.92 8 108.791 7.51807C108.662 7.03615 108.505 6.66024 108.32 6.39036C108.135 6.10121 107.941 5.95663 107.738 5.95663ZM107.738 16.6843C108.052 16.6843 108.338 16.347 108.597 15.6723C108.856 14.9976 109.031 14.1398 109.124 13.0988C108.957 12.906 108.708 12.7518 108.375 12.6361C108.061 12.5205 107.636 12.4627 107.1 12.4627C106.897 12.4627 106.638 12.5108 106.324 12.6072C106.398 13.7831 106.564 14.7566 106.823 15.5277C107.082 16.2988 107.387 16.6843 107.738 16.6843ZM113.503 23.5373C113.633 23.4795 113.725 23.3735 113.78 23.2193C113.836 23.0843 113.827 22.9398 113.753 22.7855C113.679 22.6506 113.531 22.5253 113.309 22.4096C113.087 22.294 112.755 22.2361 112.311 22.2361C111.701 22.2361 110.925 22.3614 109.983 22.612C109.04 22.8627 107.987 23.0651 106.823 23.2193C107.562 23.2771 108.227 23.3446 108.819 23.4217C109.429 23.4988 109.955 23.5663 110.399 23.6241C111.101 23.7398 111.628 23.7976 111.979 23.7976C112.33 23.7976 112.625 23.7783 112.866 23.7398C113.106 23.7012 113.318 23.6337 113.503 23.5373Z" fill="#986E3F"/>
</svg>
