<svg width="36" height="36" viewBox="0 0 36 36" fill="none" xmlns="http://www.w3.org/2000/svg">
<path fill-rule="evenodd" clip-rule="evenodd" d="M18 3C13.8579 3 10.5 6.35786 10.5 10.5C10.5 14.6421 13.8579 18 18 18C22.1421 18 25.5 14.6421 25.5 10.5C25.5 6.35786 22.1421 3 18 3ZM13.5 10.5C13.5 8.01472 15.5147 6 18 6C20.4853 6 22.5 8.01472 22.5 10.5C22.5 12.9853 20.4853 15 18 15C15.5147 15 13.5 12.9853 13.5 10.5Z" fill="#B78C5F"/>
<path d="M12 21C10.0109 21 8.10322 21.7902 6.6967 23.1967C5.29018 24.6032 4.5 26.5109 4.5 28.5V27.5C4.5 28.3284 6.67157 32.5 7.5 32.5C8.32843 32.5 7.5 32.3284 7.5 31.5V28.5C7.5 27.3065 7.97411 26.1619 8.81802 25.318C9.66193 24.4741 10.8065 24 12 24H24C25.1935 24 26.3381 24.4741 27.182 25.318C28.0259 26.1619 28.5 27.3065 28.5 28.5V31.5C28.5 32.3284 27.6716 31.5 28.5 31.5C29.3284 31.5 31.5 28.8284 31.5 28V28.5C31.5 26.5109 30.7098 24.6032 29.3033 23.1967C27.8968 21.7902 25.9891 21 24 21H12Z" fill="#B78C5F"/>
<rect x="1" y="1" width="34" height="34" rx="17" stroke="#B78C5F" stroke-width="2"/>
</svg>
