<svg xmlns="http://www.w3.org/2000/svg" width="40" height="40" viewBox="0 0 40 40" fill="none">
  <path d="M31.4979 10.9265C32.1674 10.257 32.1674 9.17157 31.4979 8.5021C30.8284 7.83263 29.743 7.83263 29.0735 8.5021L20 17.5756L10.9265 8.5021C10.257 7.83263 9.17157 7.83263 8.5021 8.5021C7.83263 9.17157 7.83263 10.257 8.5021 10.9265L17.5756 20L8.5021 29.0735C7.83263 29.743 7.83263 30.8284 8.5021 31.4979C9.17157 32.1674 10.257 32.1674 10.9265 31.4979L20 22.4244L29.0735 31.4979C29.743 32.1674 30.8284 32.1674 31.4979 31.4979C32.1674 30.8284 32.1674 29.743 31.4979 29.0735L22.4244 20L31.4979 10.9265Z" fill="#2D3648"/>
</svg>