<svg width="96" height="96" viewBox="0 0 96 96" fill="none" xmlns="http://www.w3.org/2000/svg">
<g id="Shape">
<g id="Shape_2">
<path fill-rule="evenodd" clip-rule="evenodd" d="M19.2 31.2C19.2 24.5726 24.5726 19.2 31.2 19.2C37.8274 19.2 43.2 24.5726 43.2 31.2C43.2 37.8274 37.8274 43.2 31.2 43.2C24.5726 43.2 19.2 37.8274 19.2 31.2ZM31.2 28.8C29.8745 28.8 28.8 29.8745 28.8 31.2C28.8 32.5255 29.8745 33.6 31.2 33.6C32.5255 33.6 33.6 32.5255 33.6 31.2C33.6 29.8745 32.5255 28.8 31.2 28.8Z" fill="#2D3648"/>
<path fill-rule="evenodd" clip-rule="evenodd" d="M0 14.4C0 6.4471 6.4471 0 14.4 0H81.6C89.5529 0 96 6.4471 96 14.4V81.6C96 89.5529 89.5529 96 81.6 96H14.4C6.4471 96 0 89.5529 0 81.6V14.4ZM14.4 9.6C11.749 9.6 9.6 11.749 9.6 14.4V81.6C9.6 83.6584 10.8956 85.4142 12.7159 86.0962L63.8063 35.0059C65.6808 33.1314 68.72 33.1314 70.5945 35.0059L86.4 50.8114V14.4C86.4 11.749 84.251 9.6 81.6 9.6H14.4ZM86.4 64.3879L67.2004 45.1882L25.9886 86.4H81.6C84.251 86.4 86.4 84.251 86.4 81.6V64.3879Z" fill="#2D3648"/>
</g>
</g>
</svg>
