<svg width="144" height="144" viewBox="0 0 144 144" fill="none" xmlns="http://www.w3.org/2000/svg">
<rect width="144" height="144" fill="#B08E67"/>
<path d="M80.1425 105.369C84.7309 105.369 89.1108 103.876 93.282 100.892C97.4533 97.8039 101.312 93.6871 104.857 88.5411L105.639 89.1586C104.909 90.1878 103.71 91.886 102.042 94.2532C100.373 96.5174 98.2354 98.8331 95.6284 101.2C93.1256 103.567 90.1014 105.626 86.5559 107.376C83.0103 109.125 78.9954 110 74.5113 110C69.0886 110 63.9788 108.971 59.1819 106.912C54.4892 104.751 50.37 101.921 46.8245 98.4215C43.2789 94.8193 40.5154 90.5995 38.534 85.7623C36.657 80.925 35.8227 75.8305 36.0313 70.4786C36.2398 65.6413 37.2827 61.0614 39.1597 56.7387C41.1411 52.4161 43.7481 48.6595 46.9809 45.469C50.3179 42.1755 54.1242 39.5511 58.3997 37.5956C62.7796 35.5372 67.4201 34.3536 72.3214 34.0448C79.204 33.7361 85.513 35.0226 91.2485 37.9043C97.0883 40.6832 101.833 44.5942 105.483 49.6372C107.047 51.6957 107.882 53.9084 107.986 56.2756C108.09 58.6428 107.621 60.8556 106.578 62.914C105.535 64.8694 104.023 66.5162 102.042 67.8541C100.06 69.0892 97.7662 69.7067 95.1591 69.7067C91.8221 69.7067 88.9022 68.626 86.3994 66.4647C84.0009 64.2005 82.6453 61.4216 82.3324 58.1282C81.7067 51.5413 80.6639 46.0865 79.204 41.7638C77.8483 37.3383 76.2841 35.1255 74.5113 35.1255C73.3642 35.1255 72.2692 36.1032 71.2264 38.0587C70.1836 40.0142 69.2451 42.6901 68.4108 46.0865C67.6808 49.4829 67.1073 53.4453 66.6902 57.9738C66.273 62.3994 66.0645 67.0822 66.0645 72.0224C66.0645 75.3159 66.1166 78.9181 66.2209 82.829C66.4295 86.6371 67.003 90.2393 67.9415 93.6357C68.8801 96.9291 70.2879 99.708 72.165 101.972C74.042 104.236 76.7012 105.369 80.1425 105.369Z" fill="white"/>
</svg>
