<svg xmlns="http://www.w3.org/2000/svg" width="40" height="40" viewBox="0 0 40 40" fill="none">
  <path d="M18.5858 31.4979C19.3668 32.1674 20.6332 32.1674 21.4142 31.4979L31.4142 22.9265C32.1953 22.257 32.1953 21.1716 31.4142 20.5021C30.6332 19.8326 29.3668 19.8326 28.5858 20.5021L20 27.8613L11.4142 20.5021C10.6332 19.8326 9.36683 19.8326 8.58579 20.5021C7.80474 21.1716 7.80474 22.257 8.58579 22.9265L18.5858 31.4979Z" fill="#2D3648"/>
  <path d="M8.58579 10.9265L18.5858 19.4979C19.3668 20.1674 20.6332 20.1674 21.4142 19.4979L31.4142 10.9265C32.1953 10.257 32.1953 9.17157 31.4142 8.5021C30.6332 7.83263 29.3668 7.83263 28.5858 8.5021L20 15.8613L11.4142 8.5021C10.6332 7.83263 9.36683 7.83263 8.58579 8.5021C7.80474 9.17157 7.80474 10.257 8.58579 10.9265Z" fill="#2D3648"/>
</svg>