<svg xmlns="http://www.w3.org/2000/svg" width="40" height="40" viewBox="0 0 40 40" fill="none">
  <path d="M21.4142 8.5021C20.6332 7.83263 19.3668 7.83263 18.5858 8.5021L8.58579 17.0735C7.80474 17.743 7.80474 18.8284 8.58579 19.4979C9.36683 20.1674 10.6332 20.1674 11.4142 19.4979L20 12.1387L28.5858 19.4979C29.3668 20.1674 30.6332 20.1674 31.4142 19.4979C32.1953 18.8284 32.1953 17.743 31.4142 17.0735L21.4142 8.5021Z" fill="#2D3648"/>
  <path d="M31.4142 29.0735L21.4142 20.5021C20.6332 19.8326 19.3668 19.8326 18.5858 20.5021L8.58579 29.0735C7.80474 29.743 7.80474 30.8284 8.58579 31.4979C9.36683 32.1674 10.6332 32.1674 11.4142 31.4979L20 24.1387L28.5858 31.4979C29.3668 32.1674 30.6332 32.1674 31.4142 31.4979C32.1953 30.8284 32.1953 29.743 31.4142 29.0735Z" fill="#2D3648"/>
</svg>