<svg xmlns="http://www.w3.org/2000/svg" width="40" height="40" viewBox="0 0 40 40" fill="none">
<path d="M32 16.3777C31.8806 11.7082 28.6567 8 24.597 8C23.2836 8 21.2537 9.09871 20.4179 10.8841C20.2985 11.2961 19.8209 11.2961 19.7015 10.8841C18.7463 9.23605 16.8358 8.13734 15.403 8.13734C11.4627 8.13734 8.1194 11.8455 8 16.3777V16.6524C8 18.9871 8.83582 21.1845 10.2687 22.8326C10.2687 22.8326 10.2687 22.8326 10.2687 22.97C10.3881 23.1073 16.1194 28.8755 18.7463 31.485C19.4627 32.1717 20.5373 32.1717 21.2537 31.485C23.8806 28.8755 29.4925 23.1073 29.7313 22.97C29.7313 22.97 29.7313 22.97 29.7313 22.8326C31.1642 21.3219 32 19.1245 32 16.6524V16.3777Z" fill="black"/>
</svg>