<svg xmlns="http://www.w3.org/2000/svg" width="40" height="40" viewBox="0 0 40 40" fill="none">
  <path d="M19.9409 32C19.3498 32 18.6404 31.7303 18.1675 31.191C10.4828 23.5056 10.3645 23.3708 10.3645 23.236L10.2463 23.1011C8.82758 21.4831 8 19.191 8 16.8989V16.6292C8.11823 11.7753 11.5468 8 15.803 8C17.1034 8 18.8768 8.80899 19.9409 10.427C21.0049 8.80899 22.8966 8 24.197 8C28.4532 8 31.7635 11.7753 32 16.6292V16.8989C32 19.3258 31.1724 21.4831 29.7537 23.236L29.6355 23.3708C29.5172 23.5056 28.5714 24.4494 21.8325 31.3258C21.2414 31.7303 20.6502 32 19.9409 32ZM12.1379 22.8315C12.6108 23.3708 14.9754 25.2584 19.3498 29.573C19.7044 29.9775 20.1773 29.9775 20.532 29.573C25.0246 24.9888 27.6256 22.427 28.2168 21.8876L28.335 21.7528C29.5172 20.4045 30.1084 18.6517 30.1084 16.8989V16.6292C29.9901 12.8539 27.3892 10.0225 24.0788 10.0225C23.2512 10.0225 21.5961 10.6966 21.0049 12.1798C20.7685 12.7191 20.2956 12.9888 19.8227 12.9888C19.3498 12.9888 18.8768 12.7191 18.6404 12.1798C18.0493 10.8315 16.5123 10.0225 15.5665 10.0225C12.3744 10.0225 9.65517 12.9888 9.53695 16.6292V17.0337C9.53695 18.7865 10.2463 20.5393 11.3103 21.7528L12.1379 22.8315Z" fill="black"/>
</svg>